HIERARCHY
ROOT pelvis
{
	OFFSET 0.003123 -0.351407 0.012037
	CHANNELS 6 Xposition Yposition Zposition Zrotation Yrotation Xrotation 
	JOINT left_hip
	{
		OFFSET 0.058189 -0.092763 -0.026001
		CHANNELS 3 Zrotation Yrotation Xrotation
		JOINT left_knee
		{
			OFFSET 0.054695 -0.378753 -0.009396
			CHANNELS 3 Zrotation Yrotation Xrotation
			JOINT left_ankle
			{
				OFFSET -0.043453 -0.403059 -0.031876
				CHANNELS 3 Zrotation Yrotation Xrotation
				JOINT left_foot
				{
					OFFSET 0.047257 -0.057997 0.118216
					CHANNELS 3 Zrotation Yrotation Xrotation
					End Site
					{
						OFFSET 0.000000 0.000000 0.000000
					}
				}
			}
		}
	}
	JOINT right_hip
	{
		OFFSET -0.063267 -0.103908 -0.021250
		CHANNELS 3 Zrotation Yrotation Xrotation
		JOINT right_knee
		{
			OFFSET -0.044210 -0.362380 -0.016824
			CHANNELS 3 Zrotation Yrotation Xrotation
			JOINT right_ankle
			{
				OFFSET 0.015417 -0.410728 -0.020192
				CHANNELS 3 Zrotation Yrotation Xrotation
				JOINT right_foot
				{
					OFFSET -0.038812 -0.058328 0.119049
					CHANNELS 3 Zrotation Yrotation Xrotation
					End Site
					{
						OFFSET 0.000000 0.000000 0.000000
					}
				}
			}
		}
	}
	JOINT spine_1
	{
		OFFSET -0.002763 0.109891 -0.027618
		CHANNELS 3 Zrotation Yrotation Xrotation
		JOINT spine_2
		{
			OFFSET 0.009448 0.131853 -0.005940
			CHANNELS 3 Zrotation Yrotation Xrotation
			JOINT spine_3
			{
				OFFSET -0.011330 0.052235 0.028447
				CHANNELS 3 Zrotation Yrotation Xrotation
				JOINT neck
				{
					OFFSET -0.012164 0.165167 -0.031615
					CHANNELS 3 Zrotation Yrotation Xrotation
					JOINT head
					{
						OFFSET 0.024783 0.160452 0.020737
						CHANNELS 3 Zrotation Yrotation Xrotation
						End Site
						{
							OFFSET 0.000000 0.000000 0.000000
						}
					}
				}
				JOINT left_collar
				{
					OFFSET 0.046364 0.084944 -0.007220
					CHANNELS 3 Zrotation Yrotation Xrotation
					JOINT left_shoulder
					{
						OFFSET 0.119239 0.057728 -0.015461
						CHANNELS 3 Zrotation Yrotation Xrotation
						JOINT left_elbow
						{
							OFFSET 0.254123 -0.072151 -0.042459
							CHANNELS 3 Zrotation Yrotation Xrotation
							JOINT left_wrist
							{
								OFFSET 0.251987 0.023221 -0.002472
								CHANNELS 3 Zrotation Yrotation Xrotation
								JOINT left_index_1
								{
									OFFSET 0.101902 -0.008688 0.019351
									CHANNELS 3 Zrotation Yrotation Xrotation
									JOINT left_index_2
									{
										OFFSET 0.030149 -0.011154 0.001151
										CHANNELS 3 Zrotation Yrotation Xrotation
										JOINT left_index_3
										{
											OFFSET 0.006504 -0.021577 -0.002433
											CHANNELS 3 Zrotation Yrotation Xrotation
											End Site
											{
												OFFSET 0.000000 0.000000 0.000000
											}
										}
									}
								}
								JOINT left_middle_1
								{
									OFFSET 0.109398 -0.006328 -0.003981
									CHANNELS 3 Zrotation Yrotation Xrotation
									JOINT left_middle_2
									{
										OFFSET 0.026472 -0.015218 -0.004641
										CHANNELS 3 Zrotation Yrotation Xrotation
										JOINT left_middle_3
										{
											OFFSET 0.005022 -0.023347 -0.001911
											CHANNELS 3 Zrotation Yrotation Xrotation
											End Site
											{
												OFFSET 0.000000 0.000000 0.000000
											}
										}
									}
								}
								JOINT left_pinky_1
								{
									OFFSET 0.084047 -0.014539 -0.043750
									CHANNELS 3 Zrotation Yrotation Xrotation
									JOINT left_pinky_2
									{
										OFFSET 0.012124 -0.014448 -0.005375
										CHANNELS 3 Zrotation Yrotation Xrotation
										JOINT left_pinky_3
										{
											OFFSET 0.003798 -0.018853 0.000167
											CHANNELS 3 Zrotation Yrotation Xrotation
											End Site
											{
												OFFSET 0.000000 0.000000 0.000000
											}
										}
									}
								}
								JOINT left_ring_1
								{
									OFFSET 0.097444 -0.009268 -0.027345
									CHANNELS 3 Zrotation Yrotation Xrotation
									JOINT left_ring_2
									{
										OFFSET 0.023561 -0.016057 -0.001895
										CHANNELS 3 Zrotation Yrotation Xrotation
										JOINT left_ring_3
										{
											OFFSET 0.004257 -0.023548 0.000814
											CHANNELS 3 Zrotation Yrotation Xrotation
											End Site
											{
												OFFSET 0.000000 0.000000 0.000000
											}
										}
									}
								}
								JOINT left_thumb_1
								{
									OFFSET 0.040636 -0.017977 0.025611
									CHANNELS 3 Zrotation Yrotation Xrotation
									JOINT left_thumb_2
									{
										OFFSET 0.021637 -0.017639 0.011623
										CHANNELS 3 Zrotation Yrotation Xrotation
										JOINT left_thumb_3
										{
											OFFSET 0.024002 -0.008356 0.006548
											CHANNELS 3 Zrotation Yrotation Xrotation
											End Site
											{
												OFFSET 0.000000 0.000000 0.000000
											}
										}
									}
								}
							}
						}
					}
				}
				JOINT right_collar
				{
					OFFSET -0.047695 0.084339 -0.013400
					CHANNELS 3 Zrotation Yrotation Xrotation
					JOINT right_shoulder
					{
						OFFSET -0.102578 0.053524 -0.012669
						CHANNELS 3 Zrotation Yrotation Xrotation
						JOINT right_elbow
						{
							OFFSET -0.271150 -0.036492 -0.026467
							CHANNELS 3 Zrotation Yrotation Xrotation
							JOINT right_wrist
							{
								OFFSET -0.249267 -0.004533 -0.015325
								CHANNELS 3 Zrotation Yrotation Xrotation
								JOINT right_index_1
								{
									OFFSET -0.099881 -0.011783 0.019600
									CHANNELS 3 Zrotation Yrotation Xrotation
									JOINT right_index_2
									{
										OFFSET -0.030148 -0.011154 0.001151
										CHANNELS 3 Zrotation Yrotation Xrotation
										JOINT right_index_3
										{
											OFFSET -0.006505 -0.021577 -0.002432
											CHANNELS 3 Zrotation Yrotation Xrotation
											End Site
											{
												OFFSET 0.000000 0.000000 0.000000
											}
										}
									}
								}
								JOINT right_middle_1
								{
									OFFSET -0.107376 -0.009422 -0.003734
									CHANNELS 3 Zrotation Yrotation Xrotation
									JOINT right_middle_2
									{
										OFFSET -0.026472 -0.015218 -0.004641
										CHANNELS 3 Zrotation Yrotation Xrotation
										JOINT right_middle_3
										{
											OFFSET -0.005022 -0.023347 -0.001911
											CHANNELS 3 Zrotation Yrotation Xrotation
											End Site
											{
												OFFSET 0.000000 0.000000 0.000000
											}
										}
									}
								}
								JOINT right_pinky_1
								{
									OFFSET -0.082027 -0.017634 -0.043503
									CHANNELS 3 Zrotation Yrotation Xrotation
									JOINT right_pinky_2
									{
										OFFSET -0.012123 -0.014448 -0.005374
										CHANNELS 3 Zrotation Yrotation Xrotation
										JOINT right_pinky_3
										{
											OFFSET -0.003798 -0.018852 0.000167
											CHANNELS 3 Zrotation Yrotation Xrotation
											End Site
											{
												OFFSET 0.000000 0.000000 0.000000
											}
										}
									}
								}
								JOINT right_ring_1
								{
									OFFSET -0.095423 -0.012362 -0.027099
									CHANNELS 3 Zrotation Yrotation Xrotation
									JOINT right_ring_2
									{
										OFFSET -0.023561 -0.016057 -0.001895
										CHANNELS 3 Zrotation Yrotation Xrotation
										JOINT right_ring_3
										{
											OFFSET -0.004257 -0.023548 0.000816
											CHANNELS 3 Zrotation Yrotation Xrotation
											End Site
											{
												OFFSET 0.000000 0.000000 0.000000
											}
										}
									}
								}
								JOINT right_thumb_1
								{
									OFFSET -0.038613 -0.021074 0.025861
									CHANNELS 3 Zrotation Yrotation Xrotation
									JOINT right_thumb_2
									{
										OFFSET -0.021636 -0.017639 0.011623
										CHANNELS 3 Zrotation Yrotation Xrotation
										JOINT right_thumb_3
										{
											OFFSET -0.024004 -0.008353 0.006547
											CHANNELS 3 Zrotation Yrotation Xrotation
											End Site
											{
												OFFSET 0.000000 0.000000 0.000000
											}
										}
									}
								}
							}
						}
					}
				}
			}
		}
	}
}
MOTION
Frames: 5
Frame Time: 0.050000
-0.615250 0.959152 -0.079926 -159.358311 78.243540 -165.106525 -0.670323 -1.791483 7.051892 3.625765 -1.261683 -1.508657 29.103419 11.032858 25.890239 0.000000 0.000000 0.000000 11.350634 0.090451 -3.562903 -9.296540 -0.179302 8.594300 49.556746 14.039695 14.374162 0.000000 0.000000 0.000000 7.853989 -2.059403 10.446140 -23.027730 -2.135714 -20.330649 33.737385 38.159665 35.582314 2.280607 -2.888492 -26.369417 0.000000 0.000000 0.000000 12.962559 -8.275921 -23.792536 -91.128635 19.195055 -74.059043 -21.629701 -1.889079 -1.893256 8.232340 6.172344 57.884110 -14.743626 1.684379 -2.578523 23.800333 4.849134 13.477994 0.000000 0.000000 0.000000 3.118383 0.481027 1.833119 -0.309884 -1.508667 13.967803 0.000000 0.000000 0.000000 38.854627 -14.371893 20.516773 -44.890629 8.503837 -7.800654 0.000000 0.000000 0.000000 15.134524 -0.698915 0.079612 -18.739314 -1.970859 18.449186 0.000000 0.000000 0.000000 -15.372158 13.019355 14.407036 7.908823 -11.496486 -4.033134 0.000000 0.000000 0.000000 -6.699374 -11.452288 23.844021 93.449880 54.271972 118.363275 -73.116064 18.972139 -11.490287 -3.752825 -3.010829 -59.175687 -19.091583 -2.965413 6.625232 -14.851902 15.143477 -25.784908 0.000000 0.000000 0.000000 -2.632230 2.916465 -1.331207 -19.224650 5.829045 -17.223496 0.000000 0.000000 0.000000 8.365120 22.177541 -18.482242 -26.408969 0.028358 7.281978 0.000000 0.000000 0.000000 4.931154 10.346524 -4.330270 -22.936590 1.534785 -12.411882 0.000000 0.000000 0.000000 -43.786653 2.313873 -6.742152 26.532879 4.757750 7.892297 0.000000 0.000000 0.000000 
-0.619019 0.959152 -0.082565 -156.531155 78.752036 -162.719932 -0.419656 -1.869973 7.214196 3.634381 -1.221075 -1.345222 29.050405 11.314798 24.996493 0.000000 0.000000 0.000000 10.994675 0.103127 -3.511751 -8.433653 -0.430213 8.896126 49.888821 14.157373 15.142619 0.000000 0.000000 0.000000 9.389745 -2.652422 10.904928 -23.729050 -1.885163 -18.345827 32.261690 39.277804 33.972673 2.532541 -3.186370 -27.444258 0.000000 0.000000 0.000000 12.260486 -7.681534 -22.299171 -90.687962 17.500959 -71.991056 -20.832362 -2.591072 -1.657573 7.158842 7.115803 56.677403 -13.094994 0.610330 -3.167599 20.540563 9.128965 13.391308 0.000000 0.000000 0.000000 3.211418 -0.526486 2.243617 -3.984120 -1.039665 16.912871 0.000000 0.000000 0.000000 32.628825 -10.028057 25.088773 -37.150478 2.127736 -16.037457 0.000000 0.000000 0.000000 14.868103 -2.558055 1.060109 -17.545181 -1.882781 16.293044 0.000000 0.000000 0.000000 -16.183364 11.828606 13.309263 10.325785 -9.909993 -4.397633 0.000000 0.000000 0.000000 -7.242665 -10.010331 22.535638 91.580493 52.901021 113.521868 -78.124551 23.067544 -14.967114 -3.536458 -3.945906 -58.035265 -17.786065 -1.734303 5.597969 -16.315730 11.363868 -23.630491 0.000000 0.000000 0.000000 0.448955 4.410984 -2.368784 -22.337574 3.418978 -15.349567 0.000000 0.000000 0.000000 5.193664 21.232898 -19.655590 -25.676591 -0.216885 8.266426 0.000000 0.000000 0.000000 6.449096 10.659681 -4.057952 -30.413113 0.255139 -11.168550 0.000000 0.000000 0.000000 -42.304605 3.065390 -7.387325 25.339269 3.778529 7.569599 0.000000 0.000000 0.000000 
-0.622787 0.959152 -0.082565 -154.443812 79.669007 -159.837490 -0.188327 -1.686098 5.863773 3.740477 -1.156335 -0.955104 30.517432 11.860809 27.297660 0.000000 0.000000 0.000000 11.063456 0.105720 -4.633081 -8.640780 -0.289570 8.784698 50.202121 14.480317 16.163004 0.000000 0.000000 0.000000 8.854265 -2.429176 11.158125 -22.037177 -1.755681 -21.753958 33.987021 39.955550 38.175029 1.980589 -4.291301 -28.742869 0.000000 0.000000 0.000000 12.985095 -10.221736 -20.305647 -90.448295 15.783246 -73.193978 -22.133187 -1.998626 -1.760650 4.671240 6.698522 54.277680 -12.756867 4.764536 0.253579 21.775618 2.869751 11.337070 0.000000 0.000000 0.000000 4.048234 3.940866 5.149008 -0.371521 -4.148832 12.195707 0.000000 0.000000 0.000000 33.994974 -14.900073 31.932158 -43.193572 0.407900 -16.534849 0.000000 0.000000 0.000000 16.859105 2.474915 2.769355 -18.286474 -2.946384 17.642498 0.000000 0.000000 0.000000 -14.811186 13.195849 16.315831 10.858303 -12.366156 -5.558064 0.000000 0.000000 0.000000 -6.186911 -12.647775 22.558611 91.167632 53.291367 114.421059 -82.497824 23.935185 -15.046688 -3.715105 -3.931543 -57.774372 -17.150369 -1.915438 5.804662 -15.069706 14.478805 -27.064569 0.000000 0.000000 0.000000 -2.930732 4.700105 -2.458443 -17.942621 4.584688 -15.940918 0.000000 0.000000 0.000000 3.036543 21.003202 -20.708448 -20.630113 -0.826007 7.222923 0.000000 0.000000 0.000000 8.952788 12.874358 -4.356362 -32.922128 -0.421810 -9.809031 0.000000 0.000000 0.000000 -44.037381 3.979520 -8.000532 25.388495 2.637684 7.857724 0.000000 0.000000 0.000000 
-0.622787 0.960119 -0.082565 -160.654187 77.139662 -165.820204 -0.211178 -1.625846 4.923832 4.146508 -1.132781 -0.095275 28.110363 10.472084 24.633898 0.000000 0.000000 0.000000 10.561490 0.048297 -4.523151 -8.258593 -0.363456 8.382543 48.066142 13.816108 14.392613 0.000000 0.000000 0.000000 7.163928 -1.823648 10.974665 -18.572108 -1.028962 -21.941089 31.148062 37.755456 36.428035 1.769014 -3.488400 -27.088057 0.000000 0.000000 0.000000 12.399228 -12.039635 -17.294413 -88.968186 13.005197 -70.550267 -22.600022 -1.895599 -1.626709 7.612322 6.414748 53.660117 -13.429932 0.973188 -1.795566 17.859815 4.332164 16.656849 0.000000 0.000000 0.000000 2.359883 0.751194 1.823720 -2.420361 -1.619788 16.779811 0.000000 0.000000 0.000000 31.884941 -16.968846 25.776563 -42.150754 4.257215 -14.898696 0.000000 0.000000 0.000000 13.439800 -1.686712 1.492210 -16.072538 -4.031922 15.932699 0.000000 0.000000 0.000000 -16.024308 13.541005 17.138001 13.489254 -15.324500 -6.911542 0.000000 0.000000 0.000000 -5.485290 -13.444606 20.304722 90.129489 51.135446 109.670241 -84.685687 27.622028 -18.717259 -3.681560 -4.322689 -56.142574 -15.369281 -1.265602 4.771208 -14.386539 12.052174 -25.088102 0.000000 0.000000 0.000000 -1.394314 5.530111 -3.008377 -23.270977 1.836881 -13.206746 0.000000 0.000000 0.000000 5.622662 20.869986 -19.945482 -25.208700 -0.370122 7.903388 0.000000 0.000000 0.000000 7.766248 11.922067 -4.442605 -33.894858 -0.853176 -8.442292 0.000000 0.000000 0.000000 -41.616689 3.379870 -8.351708 24.487289 2.612857 7.419178 0.000000 0.000000 0.000000 
-0.626556 0.960119 -0.082565 -157.411809 78.759325 -163.095594 -0.352622 -1.564160 5.451066 4.196197 -1.059726 -0.234325 29.340975 11.439537 26.212193 0.000000 0.000000 0.000000 11.156000 0.101305 -4.163539 -9.135792 -0.066593 8.195692 48.938114 14.188610 15.466100 0.000000 0.000000 0.000000 8.436652 -2.291209 11.620092 -21.555467 -1.682248 -21.821195 32.279582 36.406372 36.451018 2.407229 -3.221441 -27.404753 0.000000 0.000000 0.000000 12.045859 -9.794757 -18.282039 -89.631527 14.010167 -70.089943 -21.026128 -3.649738 -1.305054 4.263736 8.539534 55.932943 -6.360018 4.082929 0.752105 13.607734 8.038536 5.164528 0.000000 0.000000 0.000000 8.030312 0.393736 5.513665 -6.596841 -0.334363 8.883364 0.000000 0.000000 0.000000 28.223569 -16.350108 27.450903 -35.824323 4.530244 -20.142154 0.000000 0.000000 0.000000 16.628681 -1.239126 2.956309 -17.066384 -0.615908 13.863487 0.000000 0.000000 0.000000 -12.165933 8.974474 11.264960 8.715100 -4.841865 -3.657496 0.000000 0.000000 0.000000 -6.457488 -10.915677 20.896461 92.451697 53.099535 114.207202 -84.294343 24.782017 -17.041139 -3.589616 -3.946728 -57.197530 -15.569000 -2.145122 4.951615 -16.753109 10.767028 -24.546799 0.000000 0.000000 0.000000 -2.259434 4.924451 -2.616066 -18.438982 3.448189 -14.489302 0.000000 0.000000 0.000000 4.151436 20.296623 -19.840611 -25.394228 -0.403440 9.171688 0.000000 0.000000 0.000000 5.196379 10.011237 -4.255091 -26.243427 0.591344 -12.013334 0.000000 0.000000 0.000000 -41.189646 1.237131 -7.049275 24.552400 3.476385 7.229582 0.000000 0.000000 0.000000 
